<svg width="24" height="24" viewBox="0 0 24 24" fill="none" xmlns="http://www.w3.org/2000/svg">
<path d="M8.99988 0.999023V2.99902H14.9999V0.999023H16.9999V2.99902H20.9999C21.5522 2.99902 21.9999 3.44674 21.9999 3.99902V19.999C21.9999 20.5513 21.5522 20.999 20.9999 20.999H2.99988C2.4476 20.999 1.99988 20.5513 1.99988 19.999V3.99902C1.99988 3.44674 2.4476 2.99902 2.99988 2.99902H6.99988V0.999023H8.99988ZM19.9999 10.999H3.99988V18.999H19.9999V10.999ZM6.99988 4.99902H3.99988V8.99902H19.9999V4.99902H16.9999V6.99902H14.9999V4.99902H8.99988V6.99902H6.99988V4.99902Z" fill="#9039FF"/>
</svg>
