<svg width="20" height="20" viewBox="0 0 20 20" fill="none" xmlns="http://www.w3.org/2000/svg">
<path d="M14.1667 4.99996H18.3334V6.66663H16.6667V17.5C16.6667 17.9602 16.2937 18.3333 15.8334 18.3333H4.16675C3.70651 18.3333 3.33341 17.9602 3.33341 17.5V6.66663H1.66675V4.99996H5.83341V2.49996C5.83341 2.03973 6.20651 1.66663 6.66675 1.66663H13.3334C13.7937 1.66663 14.1667 2.03973 14.1667 2.49996V4.99996ZM15.0001 6.66663H5.00008V16.6666H15.0001V6.66663ZM7.50008 9.16663H9.16675V14.1666H7.50008V9.16663ZM10.8334 9.16663H12.5001V14.1666H10.8334V9.16663ZM7.50008 3.33329V4.99996H12.5001V3.33329H7.50008Z" fill="white"/>
</svg>
