<svg width="20" height="20" viewBox="0 0 20 20" fill="none" xmlns="http://www.w3.org/2000/svg">
<circle cx="4.40381" cy="10" r="1.5" fill="#8E96AA"/>
<circle cx="10" cy="10" r="1.5" fill="#8E96AA"/>
<circle cx="15.9199" cy="10" r="1.5" fill="#8E96AA"/>
<path d="M13.3135 10.0002C13.3135 11.2752 14.351 12.3127 15.626 12.3127C16.901 12.3127 17.9385 11.2752 17.9385 10.0002C17.9385 8.72524 16.901 7.68774 15.626 7.68774C14.351 7.68774 13.3135 8.72524 13.3135 10.0002ZM16.6885 10.0002C16.6884 10.1399 16.6608 10.2781 16.6073 10.407C16.5538 10.536 16.4754 10.6531 16.3767 10.7518C16.2779 10.8505 16.1606 10.9287 16.0316 10.9821C15.9026 11.0354 15.7643 11.0628 15.6247 11.0627C15.4851 11.0627 15.3469 11.0351 15.2179 10.9816C15.089 10.9281 14.9718 10.8497 14.8732 10.7509C14.7745 10.6521 14.6963 10.5349 14.6429 10.4059C14.5896 10.2769 14.5621 10.1386 14.5622 9.99899C14.5624 9.71704 14.6746 9.44669 14.8741 9.24743C15.0735 9.04818 15.344 8.93633 15.626 8.93649C15.9079 8.93666 16.1783 9.04883 16.3775 9.24832C16.5768 9.44781 16.6886 9.71829 16.6885 10.0002ZM2.06348 10.0002C2.06348 11.2752 3.10098 12.3127 4.37598 12.3127C5.65098 12.3127 6.68848 11.2752 6.68848 10.0002C6.68848 8.72524 5.65098 7.68774 4.37598 7.68774C3.10098 7.68774 2.06348 8.72524 2.06348 10.0002ZM5.43848 10.0002C5.43839 10.1399 5.41081 10.2781 5.35731 10.407C5.30381 10.536 5.22543 10.6531 5.12665 10.7518C5.02787 10.8505 4.91063 10.9287 4.78161 10.9821C4.6526 11.0354 4.51434 11.0628 4.37473 11.0627C4.23511 11.0627 4.09689 11.0351 3.96793 10.9816C3.83898 10.9281 3.72183 10.8497 3.62317 10.7509C3.5245 10.6521 3.44626 10.5349 3.39291 10.4059C3.33956 10.2769 3.31214 10.1386 3.31223 9.99899C3.31239 9.71704 3.42456 9.44669 3.62405 9.24743C3.82354 9.04818 4.09402 8.93633 4.37598 8.93649C4.65793 8.93666 4.92828 9.04883 5.12754 9.24832C5.32679 9.44781 5.43864 9.71829 5.43848 10.0002ZM7.68848 10.0002C7.68848 11.2752 8.72598 12.3127 10.001 12.3127C11.276 12.3127 12.3135 11.2752 12.3135 10.0002C12.3135 8.72524 11.276 7.68774 10.001 7.68774C8.72598 7.68774 7.68848 8.72524 7.68848 10.0002ZM11.0635 10.0002C11.0634 10.1399 11.0358 10.2781 10.9823 10.407C10.9288 10.536 10.8504 10.6531 10.7517 10.7518C10.6529 10.8505 10.5356 10.9287 10.4066 10.9821C10.2776 11.0354 10.1393 11.0628 9.99973 11.0627C9.86012 11.0627 9.72189 11.0351 9.59293 10.9816C9.46398 10.9281 9.34683 10.8497 9.24817 10.7509C9.1495 10.6521 9.07126 10.5349 9.01791 10.4059C8.96456 10.2769 8.93715 10.1386 8.93723 9.99899C8.93739 9.71704 9.04956 9.44669 9.24905 9.24743C9.44854 9.04818 9.71902 8.93633 10.001 8.93649C10.2829 8.93666 10.5533 9.04883 10.7525 9.24832C10.9518 9.44781 11.0636 9.71829 11.0635 10.0002Z" fill="#8E96AA"/>
</svg>
