<svg width="20" height="20" viewBox="0 0 20 20" fill="none" xmlns="http://www.w3.org/2000/svg">
<path d="M9.99984 16.666C13.6818 16.666 16.6665 13.6813 16.6665 9.99935C16.6665 6.31745 13.6818 3.33268 9.99984 3.33268C6.31794 3.33268 3.33317 6.31745 3.33317 9.99935C3.33317 13.6813 6.31794 16.666 9.99984 16.666ZM9.99984 18.3327C5.39746 18.3327 1.6665 14.6017 1.6665 9.99935C1.6665 5.39697 5.39746 1.66602 9.99984 1.66602C14.6022 1.66602 18.3332 5.39697 18.3332 9.99935C18.3332 14.6017 14.6022 18.3327 9.99984 18.3327ZM9.99984 13.3327C11.8408 13.3327 13.3332 11.8403 13.3332 9.99935C13.3332 8.1584 11.8408 6.66602 9.99984 6.66602C8.15889 6.66602 6.6665 8.1584 6.6665 9.99935C6.6665 11.8403 8.15889 13.3327 9.99984 13.3327ZM9.99984 14.9993C7.23841 14.9993 4.99984 12.7608 4.99984 9.99935C4.99984 7.23792 7.23841 4.99935 9.99984 4.99935C12.7613 4.99935 14.9998 7.23792 14.9998 9.99935C14.9998 12.7608 12.7613 14.9993 9.99984 14.9993ZM9.99984 11.666C9.07934 11.666 8.33317 10.9198 8.33317 9.99935C8.33317 9.07885 9.07934 8.33268 9.99984 8.33268C10.9203 8.33268 11.6665 9.07885 11.6665 9.99935C11.6665 10.9198 10.9203 11.666 9.99984 11.666Z" fill="white"/>
</svg>
