<svg width="375" height="576" viewBox="0 0 375 576" fill="none" xmlns="http://www.w3.org/2000/svg">
<path d="M246.953 211.081C244.724 191.509 260.861 143.979 343.242 110.428C425.623 76.8773 442.652 46.5883 440.869 35.6377" stroke="url(#paint0_linear_258_864)"/>
<path d="M216.193 185.309C213.964 165.738 230.102 118.207 312.483 84.6567C394.864 51.1058 435.103 11.0312 433.32 0.0805664" stroke="url(#paint1_linear_258_864)"/>
<path d="M-49.0686 575.436C-51.1689 555.75 -9.94634 497.396 67.6821 463.649C145.311 429.902 165.586 395.921 163.906 384.906" stroke="url(#paint2_linear_258_864)"/>
<path d="M-55.8515 544.501C-57.9519 524.815 -38.3347 471.382 39.2938 437.636C116.922 403.889 134.229 367.095 132.549 356.081" stroke="url(#paint3_linear_258_864)"/>
<defs>
<linearGradient id="paint0_linear_258_864" x1="349.639" y1="131.043" x2="242.323" y2="-95.1293" gradientUnits="userSpaceOnUse">
<stop stop-color="#9039FF"/>
<stop offset="0.5112" stop-color="#6594FF"/>
<stop offset="1" stop-color="#2DFDFF"/>
</linearGradient>
<linearGradient id="paint1_linear_258_864" x1="331.139" y1="100.807" x2="222.048" y2="-142.91" gradientUnits="userSpaceOnUse">
<stop stop-color="#9039FF"/>
<stop offset="0.5112" stop-color="#6594FF"/>
<stop offset="1" stop-color="#2DFDFF"/>
</linearGradient>
<linearGradient id="paint2_linear_258_864" x1="108.465" y1="560.362" x2="1.06672" y2="368.857" gradientUnits="userSpaceOnUse">
<stop stop-color="#9039FF"/>
<stop offset="0.5112" stop-color="#6594FF"/>
<stop offset="1" stop-color="#2DFDFF"/>
</linearGradient>
<linearGradient id="paint3_linear_258_864" x1="83.5026" y1="529.594" x2="-28.5093" y2="350.832" gradientUnits="userSpaceOnUse">
<stop stop-color="#9039FF"/>
<stop offset="0.5112" stop-color="#6594FF"/>
<stop offset="1" stop-color="#2DFDFF"/>
</linearGradient>
</defs>
</svg>
