<svg width="16" height="5" viewBox="0 0 16 5" fill="none" xmlns="http://www.w3.org/2000/svg">
<path d="M11.2501 2.3125C11.2501 3.5875 12.2876 4.625 13.5626 4.625C14.8376 4.625 15.8751 3.5875 15.8751 2.3125C15.8751 1.0375 14.8376 0 13.5626 0C12.2876 0 11.2501 1.0375 11.2501 2.3125ZM14.6251 2.3125C14.625 2.45211 14.5975 2.59034 14.544 2.71929C14.4905 2.84824 14.4121 2.9654 14.3133 3.06406C14.2145 3.16272 14.0973 3.24096 13.9683 3.29431C13.8392 3.34766 13.701 3.37508 13.5614 3.375C13.4218 3.37492 13.2835 3.34734 13.1546 3.29384C13.0256 3.24033 12.9085 3.16195 12.8098 3.06318C12.7112 2.9644 12.6329 2.84715 12.5796 2.71814C12.5262 2.58912 12.4988 2.45086 12.4989 2.31125C12.499 2.02929 12.6112 1.75895 12.8107 1.55969C13.0102 1.36043 13.2807 1.24858 13.5626 1.24875C13.8446 1.24892 14.1149 1.36108 14.3142 1.56057C14.5134 1.76007 14.6253 2.03054 14.6251 2.3125ZM0.00012207 2.3125C0.00012207 3.5875 1.03762 4.625 2.31262 4.625C3.58762 4.625 4.62512 3.5875 4.62512 2.3125C4.62512 1.0375 3.58762 0 2.31262 0C1.03762 0 0.00012207 1.0375 0.00012207 2.3125ZM3.37512 2.3125C3.37504 2.45211 3.34746 2.59034 3.29396 2.71929C3.24046 2.84824 3.16208 2.9654 3.0633 3.06406C2.96452 3.16272 2.84728 3.24096 2.71826 3.29431C2.58924 3.34766 2.45098 3.37508 2.31137 3.375C2.17176 3.37492 2.03353 3.34734 1.90458 3.29384C1.77563 3.24033 1.65847 3.16195 1.55981 3.06318C1.46115 2.9644 1.38291 2.84715 1.32956 2.71814C1.27621 2.58912 1.24879 2.45086 1.24887 2.31125C1.24904 2.02929 1.36121 1.75895 1.5607 1.55969C1.76019 1.36043 2.03066 1.24858 2.31262 1.24875C2.59458 1.24892 2.86492 1.36108 3.06418 1.56057C3.26344 1.76007 3.37529 2.03054 3.37512 2.3125ZM5.62512 2.3125C5.62512 3.5875 6.66262 4.625 7.93762 4.625C9.21262 4.625 10.2501 3.5875 10.2501 2.3125C10.2501 1.0375 9.21262 0 7.93762 0C6.66262 0 5.62512 1.0375 5.62512 2.3125ZM9.00012 2.3125C9.00004 2.45211 8.97246 2.59034 8.91896 2.71929C8.86546 2.84824 8.78708 2.9654 8.6883 3.06406C8.58952 3.16272 8.47228 3.24096 8.34326 3.29431C8.21425 3.34766 8.07598 3.37508 7.93637 3.375C7.79676 3.37492 7.65853 3.34734 7.52958 3.29384C7.40063 3.24033 7.28347 3.16195 7.18481 3.06318C7.08615 2.9644 7.00791 2.84715 6.95456 2.71814C6.90121 2.58912 6.87379 2.45086 6.87387 2.31125C6.87404 2.02929 6.98621 1.75895 7.1857 1.55969C7.38519 1.36043 7.65566 1.24858 7.93762 1.24875C8.21958 1.24892 8.48993 1.36108 8.68918 1.56057C8.88844 1.76007 9.00029 2.03054 9.00012 2.3125Z" fill="white"/>
</svg>
