<svg width="20" height="20" viewBox="0 0 20 20" fill="none" xmlns="http://www.w3.org/2000/svg">
<path d="M14.6814 4.97407L15.8926 3.76292L17.0711 4.94143L15.8599 6.15258C16.8863 7.43564 17.5 9.06315 17.5 10.834C17.5 14.9762 14.1422 18.334 10 18.334C5.85787 18.334 2.5 14.9762 2.5 10.834C2.5 6.69185 5.85787 3.33398 10 3.33398C11.7708 3.33398 13.3983 3.94771 14.6814 4.97407ZM10 16.6673C13.2217 16.6673 15.8333 14.0557 15.8333 10.834C15.8333 7.61233 13.2217 5.00065 10 5.00065C6.77834 5.00065 4.16667 7.61233 4.16667 10.834C4.16667 14.0557 6.77834 16.6673 10 16.6673ZM9.16667 6.66732H10.8333V11.6673H9.16667V6.66732ZM6.66667 0.833984H13.3333V2.50065H6.66667V0.833984Z" fill="white"/>
</svg>
