<svg width="48" height="48" viewBox="0 0 48 48" fill="none" xmlns="http://www.w3.org/2000/svg">
<g clip-path="url(#clip0_47937_10313)">
<path d="M24 48C37.2548 48 48 37.2548 48 24C48 10.7452 37.2548 0 24 0C10.7452 0 0 10.7452 0 24C0 37.2548 10.7452 48 24 48Z" fill="url(#paint0_linear_47937_10313)"/>
<path d="M32.4374 34.2275H15.5624C14.2686 34.2275 13.2186 33.1775 13.2186 31.8838V31.8425C13.2186 25.9147 18.0308 21.1025 23.9586 21.1025H23.9999C29.9502 21.1025 34.7811 25.9335 34.7811 31.8838C34.7811 33.1775 33.7311 34.2275 32.4374 34.2275Z" fill="url(#paint1_radial_47937_10313)"/>
<path d="M31.1218 23.7918C30.6071 24.4387 29.8131 24.854 28.9215 24.854H19.0778C18.1806 24.854 17.3809 24.4331 16.8662 23.7787C18.7581 22.1137 21.2396 21.104 23.9584 21.104H23.9996C26.7296 21.104 29.2215 22.1184 31.1218 23.7918Z" fill="url(#paint2_linear_47937_10313)"/>
<path d="M32.4232 34.2284H15.5867C15.6823 30.6274 19.4145 27.7324 24.0045 27.7324C28.5945 27.7324 32.3276 30.6274 32.4232 34.2284Z" fill="url(#paint3_linear_47937_10313)"/>
<path d="M41.0567 40.8835C39.776 42.1774 38.3529 43.3222 36.8145 44.296C41.4852 25.5056 32.7205 19.5394 32.6248 19.4878C31.828 19.0575 31.5308 18.0619 31.962 17.2641C32.3933 16.4672 33.3889 16.171 34.1858 16.6013C34.3208 16.6744 37.5148 18.4425 39.6317 23.1675C40.8364 25.8535 41.4664 28.9735 41.5067 32.4413C41.5273 34.3041 41.3773 38.0063 41.0567 40.8835Z" fill="url(#paint4_linear_47937_10313)"/>
<path d="M6.94308 40.8835C8.2238 42.1774 9.64693 43.3222 11.1853 44.296C6.51464 25.5056 15.2793 19.5394 15.375 19.4878C16.1718 19.0575 16.469 18.0619 16.0378 17.2641C15.6065 16.4672 14.6109 16.171 13.814 16.6013C13.679 16.6744 10.485 18.4425 8.36808 23.1675C7.16339 25.8535 6.53339 28.9735 6.49308 32.4413C6.47246 34.3041 6.62246 38.0063 6.94308 40.8835Z" fill="url(#paint5_linear_47937_10313)"/>
<path d="M33.8475 19.9268C33.569 19.9268 33.2878 19.8565 33.029 19.7074L27.2343 16.3652C26.7262 16.0727 26.4131 15.5309 26.4131 14.944C26.4131 14.3571 26.7262 13.8162 27.2343 13.5227L33.029 10.1806C33.8137 9.72775 34.8178 9.99775 35.2696 10.7824C35.7225 11.5671 35.4534 12.5702 34.6678 13.0231L31.3378 14.944L34.6678 16.8649C35.4525 17.3177 35.7225 18.3209 35.2696 19.1056C34.9659 19.6324 34.4137 19.9268 33.8465 19.9268H33.8475Z" fill="url(#paint6_linear_47937_10313)"/>
<path d="M14.1523 19.9268C14.4307 19.9268 14.712 19.8565 14.9707 19.7074L20.7654 16.3652C21.2735 16.0727 21.5866 15.5309 21.5866 14.944C21.5866 14.3571 21.2735 13.8162 20.7654 13.5227L14.9707 10.1806C14.186 9.72775 13.182 9.99775 12.7301 10.7824C12.2773 11.5671 12.5463 12.5702 13.332 13.0231L16.662 14.944L13.332 16.8649C12.5473 17.3177 12.2773 18.3209 12.7301 19.1056C13.0338 19.6324 13.586 19.9268 14.1532 19.9268H14.1523Z" fill="url(#paint7_linear_47937_10313)"/>
<path d="M36.7899 7.48023C36.5967 8.54336 35.3846 9.07117 34.478 8.48429C33.6502 7.94898 32.5852 7.42492 31.3617 7.20273C30.1383 6.98054 28.9571 7.09586 27.9942 7.30679C26.9386 7.53742 25.9899 6.61679 26.183 5.55367C26.2711 5.06711 26.5899 4.65179 27.0399 4.44742C27.9267 4.04523 29.6011 3.54742 31.9486 3.97398C34.2961 4.40054 35.6883 5.45429 36.3774 6.14242C36.7271 6.49211 36.8789 6.99273 36.7908 7.47929L36.7899 7.48023Z" fill="url(#paint8_linear_47937_10313)"/>
<path d="M11.1269 7.48023C11.32 8.54336 12.5322 9.07117 13.4388 8.48429C14.2666 7.94898 15.3316 7.42492 16.555 7.20273C17.7785 6.98054 18.9597 7.09586 19.9225 7.30679C20.9782 7.53742 21.9269 6.61679 21.7338 5.55367C21.6457 5.06711 21.3269 4.65179 20.8769 4.44742C19.99 4.04523 18.3157 3.54742 15.9682 3.97398C13.6207 4.40054 12.2285 5.45429 11.5394 6.14242C11.1897 6.49211 11.0379 6.99273 11.126 7.47929L11.1269 7.48023Z" fill="url(#paint9_linear_47937_10313)"/>
</g>
<defs>
<linearGradient id="paint0_linear_47937_10313" x1="7.02937" y1="7.02937" x2="40.9706" y2="40.9706" gradientUnits="userSpaceOnUse">
<stop offset="0.1" stop-color="#FFF1AB"/>
<stop offset="0.4" stop-color="#FFDA24"/>
<stop offset="0.51" stop-color="#FFC81D"/>
<stop offset="0.74" stop-color="#FF9A0C"/>
<stop offset="0.9" stop-color="#FF7700"/>
</linearGradient>
<radialGradient id="paint1_radial_47937_10313" cx="0" cy="0" r="1" gradientUnits="userSpaceOnUse" gradientTransform="translate(23.9999 27.666) scale(8.925 8.925)">
<stop stop-color="#614444"/>
<stop offset="0.38" stop-color="#583C3C"/>
<stop offset="1" stop-color="#402828"/>
</radialGradient>
<linearGradient id="paint2_linear_47937_10313" x1="23.994" y1="24.854" x2="23.994" y2="21.104" gradientUnits="userSpaceOnUse">
<stop offset="0.65" stop-color="white"/>
<stop offset="0.75" stop-color="#F6F6F6"/>
<stop offset="0.9" stop-color="#DDDDDD"/>
<stop offset="1" stop-color="#CCCCCC"/>
</linearGradient>
<linearGradient id="paint3_linear_47937_10313" x1="24.0045" y1="34.2284" x2="24.0045" y2="27.7324" gradientUnits="userSpaceOnUse">
<stop stop-color="#FF6A00"/>
<stop offset="0.99" stop-color="#FFA227"/>
</linearGradient>
<linearGradient id="paint4_linear_47937_10313" x1="36.6364" y1="44.296" x2="36.6364" y2="16.4035" gradientUnits="userSpaceOnUse">
<stop stop-color="#80E1FF"/>
<stop offset="1" stop-color="#00AAFF"/>
</linearGradient>
<linearGradient id="paint5_linear_47937_10313" x1="11.3634" y1="44.296" x2="11.3634" y2="16.4035" gradientUnits="userSpaceOnUse">
<stop stop-color="#80E1FF"/>
<stop offset="1" stop-color="#00AAFF"/>
</linearGradient>
<linearGradient id="paint6_linear_47937_10313" x1="30.9515" y1="19.9268" x2="30.9515" y2="9.96119" gradientUnits="userSpaceOnUse">
<stop stop-color="#3B2828"/>
<stop offset="1" stop-color="#705454"/>
</linearGradient>
<linearGradient id="paint7_linear_47937_10313" x1="17.0482" y1="19.9268" x2="17.0482" y2="9.96119" gradientUnits="userSpaceOnUse">
<stop stop-color="#3B2828"/>
<stop offset="1" stop-color="#705454"/>
</linearGradient>
<linearGradient id="paint8_linear_47937_10313" x1="31.4855" y1="8.72805" x2="31.4855" y2="3.81179" gradientUnits="userSpaceOnUse">
<stop stop-color="#3B2828"/>
<stop offset="1" stop-color="#705454"/>
</linearGradient>
<linearGradient id="paint9_linear_47937_10313" x1="16.4313" y1="8.72805" x2="16.4313" y2="3.81179" gradientUnits="userSpaceOnUse">
<stop stop-color="#3B2828"/>
<stop offset="1" stop-color="#705454"/>
</linearGradient>
<clipPath id="clip0_47937_10313">
<rect width="48" height="48" fill="white"/>
</clipPath>
</defs>
</svg>
