<svg width="48" height="48" viewBox="0 0 48 48" fill="none" xmlns="http://www.w3.org/2000/svg">
<g clip-path="url(#clip0_47937_10300)">
<path d="M24 48C37.2548 48 48 37.2548 48 24C48 10.7452 37.2548 0 24 0C10.7452 0 0 10.7452 0 24C0 37.2548 10.7452 48 24 48Z" fill="#FFDA24"/>
<path d="M28.2644 13.306C28.6469 12.2213 30.01 11.8707 30.8641 12.6404C31.6431 13.3426 32.6753 14.0729 33.9231 14.5126C35.1709 14.9523 36.4328 15.0301 37.48 14.972C38.6284 14.9073 39.4703 16.0351 39.0878 17.1198C38.9125 17.6167 38.5075 17.9992 38.0003 18.1379C37 18.4107 35.1569 18.6517 32.7616 17.807C30.3662 16.9632 29.0809 15.6198 28.4725 14.7807C28.1641 14.3542 28.0881 13.802 28.2634 13.306H28.2644ZM19.7284 13.306C19.3459 12.2213 17.9828 11.8707 17.1287 12.6404C16.3497 13.3426 15.3175 14.0729 14.0697 14.5126C12.8219 14.9523 11.56 15.0301 10.5128 14.972C9.36437 14.9073 8.52249 16.0351 8.90499 17.1198C9.0803 17.6167 9.4853 17.9992 9.99249 18.1379C10.9928 18.4107 12.8359 18.6517 15.2312 17.807C17.6266 16.9632 18.9119 15.6198 19.5203 14.7807C19.8287 14.3542 19.9047 13.802 19.7294 13.306H19.7284Z" fill="#473535"/>
<path d="M17.5827 37.8634C17.637 37.0805 19.5336 34.373 23.9961 34.373C28.4586 34.373 30.3552 37.0805 30.4095 37.8634C30.4583 38.5655 29.9764 38.8609 29.3839 38.7399C28.7933 38.619 27.3373 37.2521 23.9952 37.2521C20.653 37.2521 19.198 38.619 18.6064 38.7399C18.0158 38.8609 17.532 38.5655 17.5808 37.8634H17.5827Z" fill="#473535"/>
<path d="M32.4238 31.3125C35.5889 31.3125 38.1547 28.7466 38.1547 25.5815C38.1547 22.4164 35.5889 19.8506 32.4238 19.8506C29.2587 19.8506 26.6929 22.4164 26.6929 25.5815C26.6929 28.7466 29.2587 31.3125 32.4238 31.3125Z" fill="white"/>
<path d="M32.4239 28.6469C34.4794 28.6469 36.1458 26.9805 36.1458 24.925C36.1458 22.8695 34.4794 21.2031 32.4239 21.2031C30.3684 21.2031 28.702 22.8695 28.702 24.925C28.702 26.9805 30.3684 28.6469 32.4239 28.6469Z" fill="#473535"/>
<path d="M34.2257 25.0412C35.2861 25.0412 36.1457 24.1816 36.1457 23.1212C36.1457 22.0608 35.2861 21.2012 34.2257 21.2012C33.1653 21.2012 32.3057 22.0608 32.3057 23.1212C32.3057 24.1816 33.1653 25.0412 34.2257 25.0412Z" fill="white"/>
<path d="M15.5766 31.3125C18.7417 31.3125 21.3076 28.7466 21.3076 25.5815C21.3076 22.4164 18.7417 19.8506 15.5766 19.8506C12.4115 19.8506 9.8457 22.4164 9.8457 25.5815C9.8457 28.7466 12.4115 31.3125 15.5766 31.3125Z" fill="white"/>
<path d="M15.5771 28.6469C17.6326 28.6469 19.299 26.9805 19.299 24.925C19.299 22.8695 17.6326 21.2031 15.5771 21.2031C13.5216 21.2031 11.8552 22.8695 11.8552 24.925C11.8552 26.9805 13.5216 28.6469 15.5771 28.6469Z" fill="#473535"/>
<path d="M17.3785 25.0412C18.4389 25.0412 19.2985 24.1816 19.2985 23.1212C19.2985 22.0608 18.4389 21.2012 17.3785 21.2012C16.3181 21.2012 15.4585 22.0608 15.4585 23.1212C15.4585 24.1816 16.3181 25.0412 17.3785 25.0412Z" fill="white"/>
</g>
<defs>
<clipPath id="clip0_47937_10300">
<rect width="48" height="48" fill="white"/>
</clipPath>
</defs>
</svg>
