<svg width="48" height="48" viewBox="0 0 48 48" fill="none" xmlns="http://www.w3.org/2000/svg">
<g clip-path="url(#clip0_47937_10286)">
<path d="M24 48C37.2548 48 48 37.2548 48 24C48 10.7452 37.2548 0 24 0C10.7452 0 0 10.7452 0 24C0 37.2548 10.7452 48 24 48Z" fill="#FFDA24"/>
<path d="M48 24C48 37.2544 37.2544 48 24 48C10.7456 48 0 37.2544 0 24C0 23.0484 0.0553125 22.11 0.163125 21.1875C1.55531 33.1163 11.6972 42.375 24 42.375C36.3028 42.375 46.4447 33.1163 47.8369 21.1875C47.9458 22.121 48.0002 23.0601 48 24Z" fill="#FFC024"/>
<path d="M32.4706 23.8125C35.6357 23.8125 38.2015 21.2466 38.2015 18.0815C38.2015 14.9164 35.6357 12.3506 32.4706 12.3506C29.3055 12.3506 26.7396 14.9164 26.7396 18.0815C26.7396 21.2466 29.3055 23.8125 32.4706 23.8125Z" fill="white"/>
<path d="M32.4705 21.8031C34.5261 21.8031 36.1924 20.1368 36.1924 18.0812C36.1924 16.0257 34.5261 14.3594 32.4705 14.3594C30.415 14.3594 28.7487 16.0257 28.7487 18.0812C28.7487 20.1368 30.415 21.8031 32.4705 21.8031Z" fill="#473535"/>
<path d="M34.2724 18.1974C35.3328 18.1974 36.1924 17.3378 36.1924 16.2774C36.1924 15.217 35.3328 14.3574 34.2724 14.3574C33.212 14.3574 32.3524 15.217 32.3524 16.2774C32.3524 17.3378 33.212 18.1974 34.2724 18.1974Z" fill="white"/>
<path d="M15.6233 23.8125C18.7884 23.8125 21.3542 21.2466 21.3542 18.0815C21.3542 14.9164 18.7884 12.3506 15.6233 12.3506C12.4582 12.3506 9.89233 14.9164 9.89233 18.0815C9.89233 21.2466 12.4582 23.8125 15.6233 23.8125Z" fill="white"/>
<path d="M15.6237 21.8031C17.6793 21.8031 19.3456 20.1368 19.3456 18.0812C19.3456 16.0257 17.6793 14.3594 15.6237 14.3594C13.5682 14.3594 11.9019 16.0257 11.9019 18.0812C11.9019 20.1368 13.5682 21.8031 15.6237 21.8031Z" fill="#473535"/>
<path d="M17.4252 18.1974C18.4856 18.1974 19.3452 17.3378 19.3452 16.2774C19.3452 15.217 18.4856 14.3574 17.4252 14.3574C16.3649 14.3574 15.5052 15.217 15.5052 16.2774C15.5052 17.3378 16.3649 18.1974 17.4252 18.1974Z" fill="white"/>
<path d="M29.5206 29.8252H19.2081C18.302 29.8252 17.5675 30.5597 17.5675 31.4658C17.5675 32.3719 18.302 33.1064 19.2081 33.1064H29.5206C30.4267 33.1064 31.1613 32.3719 31.1613 31.4658C31.1613 30.5597 30.4267 29.8252 29.5206 29.8252Z" fill="#473535"/>
<path d="M10.1187 9.47633C10.1187 10.5563 11.2165 11.2932 12.214 10.877C13.1243 10.4973 14.2662 10.1729 15.5093 10.1729C16.7524 10.1729 17.8943 10.4973 18.8046 10.877C19.8021 11.2923 20.8999 10.5563 20.8999 9.47633C20.8999 8.98227 20.6608 8.51633 20.254 8.23508C19.4533 7.68102 17.8952 6.89258 15.5093 6.89258C13.1233 6.89258 11.5652 7.68102 10.7646 8.23508C10.3577 8.51633 10.1187 8.98227 10.1187 9.47633ZM37.8799 9.47633C37.8799 10.5563 36.7821 11.2932 35.7846 10.877C34.8743 10.4973 33.7324 10.1729 32.4893 10.1729C31.2462 10.1729 30.1043 10.4973 29.194 10.877C28.1965 11.2923 27.0987 10.5563 27.0987 9.47633C27.0987 8.98227 27.3377 8.51633 27.7446 8.23508C28.5452 7.68102 30.1033 6.89258 32.4893 6.89258C34.8752 6.89258 36.4333 7.68102 37.234 8.23508C37.6408 8.51633 37.8799 8.98227 37.8799 9.47633Z" fill="#473535"/>
</g>
<defs>
<clipPath id="clip0_47937_10286">
<rect width="48" height="48" fill="white"/>
</clipPath>
</defs>
</svg>
