<svg width="48" height="48" viewBox="0 0 48 48" fill="none" xmlns="http://www.w3.org/2000/svg">
<g clip-path="url(#clip0_47937_10265)">
<path d="M24 48C37.2548 48 48 37.2548 48 24C48 10.7452 37.2548 0 24 0C10.7452 0 0 10.7452 0 24C0 37.2548 10.7452 48 24 48Z" fill="#CCA4FF"/>
<path d="M48.0001 24C48.0001 37.2544 37.2545 48 24.0001 48C10.7457 48 0.00012207 37.2544 0.00012207 24C0.00012207 23.0484 0.0554346 22.11 0.163247 21.1875C1.55543 33.1163 11.6973 42.375 24.0001 42.375C36.3029 42.375 46.4448 33.1163 47.837 21.1875C47.9459 22.121 48.0004 23.0601 48.0001 24Z" fill="#B57AFF"/>
<path d="M14.6462 21.5991H33.3558C34.7902 21.5991 35.9546 22.7635 35.9546 24.1979V24.2438C35.9546 30.8157 30.6193 36.151 24.0474 36.151H24.0015C17.4043 36.151 12.0483 30.7951 12.0483 24.1979C12.0483 22.7635 13.2127 21.5991 14.6471 21.5991H14.6462Z" fill="#3C186B"/>
<path d="M31.3879 33.619C29.3648 35.2044 26.8167 36.1503 24.0464 36.1503H24.0004C21.217 36.1503 18.6567 35.1997 16.6251 33.604C18.2929 31.3447 20.9761 29.8784 24.0004 29.8784C27.0248 29.8784 29.7201 31.3503 31.3879 33.619Z" fill="url(#paint0_linear_47937_10265)"/>
<path d="M34.6541 21.9469V22.6379C34.6541 24.3591 33.2581 25.756 31.5359 25.756H16.4647C14.7425 25.756 13.3466 24.3591 13.3466 22.6379V21.9469C13.7291 21.7257 14.1725 21.5991 14.6459 21.5991H33.3556C33.8281 21.5991 34.2725 21.7257 34.655 21.9469H34.6541Z" fill="white"/>
<path d="M28.1183 15.8571C27.8229 15.8571 27.5248 15.7774 27.2548 15.6105C26.4842 15.1334 26.2479 14.1209 26.7242 13.3502C26.9698 12.9537 29.2151 9.47461 32.4111 9.47461C35.607 9.47461 37.8523 12.9537 38.0979 13.3502C38.5751 14.1209 38.337 15.1315 37.5664 15.6087C36.7967 16.0849 35.7879 15.8487 35.3108 15.0809C34.8345 14.3215 33.4995 12.7549 32.412 12.7549C31.3245 12.7549 29.9895 14.3215 29.5133 15.0809C29.3664 15.3184 29.1612 15.5144 28.9172 15.6503C28.6732 15.7862 28.3985 15.8574 28.1192 15.8571H28.1183ZM11.2976 15.8571C11.0023 15.8571 10.7042 15.7774 10.4342 15.6105C9.66357 15.1334 9.42732 14.1209 9.90357 13.3502C10.1492 12.9537 12.3945 9.47461 15.5904 9.47461C18.7864 9.47461 21.0317 12.9537 21.2773 13.3502C21.7545 14.1209 21.5164 15.1315 20.7458 15.6087C19.9751 16.0859 18.9645 15.8477 18.4873 15.0771C18.0139 14.3224 16.6789 12.7559 15.5914 12.7559C14.5039 12.7559 13.1689 14.3224 12.6926 15.0818C12.5458 15.3193 12.3406 15.5154 12.0966 15.6512C11.8526 15.7871 11.5779 15.8583 11.2986 15.858L11.2976 15.8571Z" fill="#3C186B"/>
</g>
<defs>
<linearGradient id="paint0_linear_47937_10265" x1="24.4446" y1="33.289" x2="22.3388" y2="23.8533" gradientUnits="userSpaceOnUse">
<stop stop-color="#9039FF"/>
<stop offset="0.5112" stop-color="#6594FF"/>
<stop offset="1" stop-color="#2DFDFF"/>
</linearGradient>
<clipPath id="clip0_47937_10265">
<rect width="48" height="48" fill="white"/>
</clipPath>
</defs>
</svg>
